<mxfile host="app.diagrams.net" modified="2024-03-20T19:25:36.977Z" agent="Mozilla/5.0 (Windows NT 10.0; Win64; x64) AppleWebKit/537.36 (KHTML, like Gecko) Chrome/122.0.0.0 Safari/537.36" etag="GoQaRgmdYilCGFokHsq2" version="24.0.5" type="device">
  <diagram name="Página-1" id="h4xDPeDAEqKQWUTyy09Z">
    <mxGraphModel dx="880" dy="468" grid="1" gridSize="10" guides="1" tooltips="1" connect="1" arrows="1" fold="1" page="1" pageScale="1" pageWidth="827" pageHeight="1169" math="0" shadow="0">
      <root>
        <mxCell id="0" />
        <mxCell id="1" parent="0" />
        <mxCell id="b8e4s-ukcxXnyx70t89O-1" value="" style="ellipse;html=1;shape=startState;fillColor=#000000;strokeColor=#ff0000;" parent="1" vertex="1">
          <mxGeometry x="52.5" width="30" height="30" as="geometry" />
        </mxCell>
        <mxCell id="b8e4s-ukcxXnyx70t89O-2" value="" style="edgeStyle=orthogonalEdgeStyle;html=1;verticalAlign=bottom;endArrow=open;endSize=8;strokeColor=#ff0000;rounded=0;" parent="1" source="b8e4s-ukcxXnyx70t89O-1" edge="1">
          <mxGeometry relative="1" as="geometry">
            <mxPoint x="67.5" y="80" as="targetPoint" />
          </mxGeometry>
        </mxCell>
        <mxCell id="qgIlsO_7iwFgVMwNxwQp-6" style="edgeStyle=orthogonalEdgeStyle;rounded=0;orthogonalLoop=1;jettySize=auto;html=1;" edge="1" parent="1" source="qgIlsO_7iwFgVMwNxwQp-1">
          <mxGeometry relative="1" as="geometry">
            <mxPoint x="182.5" y="195" as="targetPoint" />
          </mxGeometry>
        </mxCell>
        <mxCell id="qgIlsO_7iwFgVMwNxwQp-7" style="edgeStyle=orthogonalEdgeStyle;rounded=0;orthogonalLoop=1;jettySize=auto;html=1;" edge="1" parent="1" source="qgIlsO_7iwFgVMwNxwQp-1">
          <mxGeometry relative="1" as="geometry">
            <mxPoint x="67.5" y="260" as="targetPoint" />
          </mxGeometry>
        </mxCell>
        <mxCell id="qgIlsO_7iwFgVMwNxwQp-1" value="Professor ou Aluno" style="rhombus;whiteSpace=wrap;html=1;fontColor=#000000;fillColor=#ffffc0;strokeColor=#ff0000;" vertex="1" parent="1">
          <mxGeometry y="160" width="135" height="70" as="geometry" />
        </mxCell>
        <mxCell id="qgIlsO_7iwFgVMwNxwQp-4" value="Cadastro Usuários" style="rounded=1;whiteSpace=wrap;html=1;arcSize=40;fontColor=#000000;fillColor=#ffffc0;strokeColor=#ff0000;" vertex="1" parent="1">
          <mxGeometry x="7.5" y="80" width="120" height="40" as="geometry" />
        </mxCell>
        <mxCell id="qgIlsO_7iwFgVMwNxwQp-5" value="" style="edgeStyle=orthogonalEdgeStyle;html=1;verticalAlign=bottom;endArrow=open;endSize=8;strokeColor=#ff0000;rounded=0;" edge="1" source="qgIlsO_7iwFgVMwNxwQp-4" parent="1">
          <mxGeometry relative="1" as="geometry">
            <mxPoint x="67.5" y="160" as="targetPoint" />
          </mxGeometry>
        </mxCell>
        <mxCell id="qgIlsO_7iwFgVMwNxwQp-8" value="Aluno" style="text;html=1;align=center;verticalAlign=middle;resizable=0;points=[];autosize=1;strokeColor=none;fillColor=none;" vertex="1" parent="1">
          <mxGeometry x="117.5" y="158" width="50" height="30" as="geometry" />
        </mxCell>
        <mxCell id="qgIlsO_7iwFgVMwNxwQp-9" value="Professor" style="text;html=1;align=center;verticalAlign=middle;resizable=0;points=[];autosize=1;strokeColor=none;fillColor=none;" vertex="1" parent="1">
          <mxGeometry x="65" y="218" width="70" height="30" as="geometry" />
        </mxCell>
        <mxCell id="qgIlsO_7iwFgVMwNxwQp-10" value="Cadastrar Aluno" style="rounded=1;whiteSpace=wrap;html=1;arcSize=40;fontColor=#000000;fillColor=#ffffc0;strokeColor=#ff0000;" vertex="1" parent="1">
          <mxGeometry x="182.5" y="180" width="120" height="40" as="geometry" />
        </mxCell>
        <mxCell id="qgIlsO_7iwFgVMwNxwQp-11" value="" style="edgeStyle=orthogonalEdgeStyle;html=1;verticalAlign=bottom;endArrow=open;endSize=8;strokeColor=#ff0000;rounded=0;" edge="1" source="qgIlsO_7iwFgVMwNxwQp-10" parent="1">
          <mxGeometry relative="1" as="geometry">
            <mxPoint x="242.5" y="260" as="targetPoint" />
          </mxGeometry>
        </mxCell>
        <mxCell id="qgIlsO_7iwFgVMwNxwQp-12" value="Consultar Livros" style="rounded=1;whiteSpace=wrap;html=1;arcSize=40;fontColor=#000000;fillColor=#ffffc0;strokeColor=#ff0000;" vertex="1" parent="1">
          <mxGeometry x="182.5" y="260" width="120" height="40" as="geometry" />
        </mxCell>
        <mxCell id="qgIlsO_7iwFgVMwNxwQp-13" value="" style="edgeStyle=orthogonalEdgeStyle;html=1;verticalAlign=bottom;endArrow=open;endSize=8;strokeColor=#ff0000;rounded=0;" edge="1" source="qgIlsO_7iwFgVMwNxwQp-12" parent="1">
          <mxGeometry relative="1" as="geometry">
            <mxPoint x="352.5" y="280" as="targetPoint" />
          </mxGeometry>
        </mxCell>
        <mxCell id="qgIlsO_7iwFgVMwNxwQp-16" style="edgeStyle=orthogonalEdgeStyle;rounded=0;orthogonalLoop=1;jettySize=auto;html=1;entryX=0;entryY=0.5;entryDx=0;entryDy=0;" edge="1" parent="1" source="qgIlsO_7iwFgVMwNxwQp-14" target="qgIlsO_7iwFgVMwNxwQp-12">
          <mxGeometry relative="1" as="geometry" />
        </mxCell>
        <mxCell id="qgIlsO_7iwFgVMwNxwQp-14" value="Cadastrar Professor" style="rounded=1;whiteSpace=wrap;html=1;arcSize=40;fontColor=#000000;fillColor=#ffffc0;strokeColor=#ff0000;" vertex="1" parent="1">
          <mxGeometry x="7.5" y="260" width="120" height="40" as="geometry" />
        </mxCell>
        <mxCell id="qgIlsO_7iwFgVMwNxwQp-19" style="edgeStyle=orthogonalEdgeStyle;rounded=0;orthogonalLoop=1;jettySize=auto;html=1;" edge="1" parent="1" source="qgIlsO_7iwFgVMwNxwQp-17">
          <mxGeometry relative="1" as="geometry">
            <mxPoint x="522.5" y="280" as="targetPoint" />
          </mxGeometry>
        </mxCell>
        <mxCell id="qgIlsO_7iwFgVMwNxwQp-17" value="Realizar Empréstimo" style="rounded=1;whiteSpace=wrap;html=1;arcSize=40;fontColor=#000000;fillColor=#ffffc0;strokeColor=#ff0000;" vertex="1" parent="1">
          <mxGeometry x="352.5" y="260" width="120" height="40" as="geometry" />
        </mxCell>
        <mxCell id="qgIlsO_7iwFgVMwNxwQp-22" style="edgeStyle=orthogonalEdgeStyle;rounded=0;orthogonalLoop=1;jettySize=auto;html=1;" edge="1" parent="1" source="qgIlsO_7iwFgVMwNxwQp-20">
          <mxGeometry relative="1" as="geometry">
            <mxPoint x="682.5" y="280" as="targetPoint" />
          </mxGeometry>
        </mxCell>
        <mxCell id="qgIlsO_7iwFgVMwNxwQp-20" value="Realizar Devolução" style="rounded=1;whiteSpace=wrap;html=1;arcSize=40;fontColor=#000000;fillColor=#ffffc0;strokeColor=#ff0000;" vertex="1" parent="1">
          <mxGeometry x="522.5" y="260" width="120" height="40" as="geometry" />
        </mxCell>
        <mxCell id="qgIlsO_7iwFgVMwNxwQp-23" value="" style="ellipse;html=1;shape=endState;fillColor=#000000;strokeColor=#ff0000;" vertex="1" parent="1">
          <mxGeometry x="680" y="265" width="30" height="30" as="geometry" />
        </mxCell>
      </root>
    </mxGraphModel>
  </diagram>
</mxfile>
